<svg width="27" height="29" viewBox="0 0 27 29" fill="none" xmlns="http://www.w3.org/2000/svg">
<path d="M13.5 10.6333C12.7371 10.6333 11.9914 10.8601 11.3571 11.285C10.7228 11.7099 10.2284 12.3137 9.93647 13.0203C9.64453 13.7268 9.56814 14.5043 9.71697 15.2543C9.8658 16.0044 10.2332 16.6934 10.7726 17.2341C11.312 17.7749 11.9993 18.1432 12.7475 18.2924C13.4957 18.4416 14.2713 18.365 14.9761 18.0723C15.6809 17.7797 16.2833 17.2841 16.7071 16.6482C17.1309 16.0123 17.3571 15.2648 17.3571 14.5C17.3571 13.4745 16.9508 12.491 16.2274 11.7659C15.5041 11.0407 14.523 10.6333 13.5 10.6333ZM13.5 16.8587C13.0385 16.8587 12.5873 16.7215 12.2035 16.4644C11.8198 16.2074 11.5207 15.842 11.3441 15.4146C11.1674 14.9871 11.1212 14.5167 11.2113 14.063C11.3013 13.6092 11.5236 13.1923 11.8499 12.8652C12.1763 12.538 12.5921 12.3152 13.0447 12.2249C13.4974 12.1347 13.9666 12.181 14.393 12.3581C14.8194 12.5351 15.1839 12.835 15.4403 13.2197C15.6967 13.6044 15.8336 14.0567 15.8336 14.5193C15.8336 14.8265 15.7732 15.1307 15.6559 15.4146C15.5387 15.6984 15.3668 15.9563 15.1501 16.1735C14.9334 16.3907 14.6761 16.563 14.393 16.6806C14.1099 16.7982 13.8064 16.8587 13.5 16.8587Z" fill="white"/>
<path d="M19.2887 8.72011C17.997 7.439 16.6077 6.25836 15.1329 5.18867C16.1415 4.58421 17.2002 4.06584 18.2975 3.63916C18.5885 3.53105 18.8613 3.44997 19.1341 3.36889C19.3555 3.63421 19.6406 3.84015 19.9633 3.96781C20.2859 4.09547 20.6358 4.14076 20.9808 4.0995C21.3257 4.05824 21.6547 3.93176 21.9374 3.73169C22.2201 3.53162 22.4476 3.26437 22.5988 2.95449C23.2482 3.01274 23.8609 3.2783 24.3448 3.71123C25.427 4.78327 25.4542 6.94538 24.4358 9.63901C24.8813 10.2246 25.2906 10.8192 25.6634 11.4408C25.818 11.0804 25.9817 10.7291 26.109 10.3777C27.4458 6.90935 27.273 4.07158 25.627 2.46802C24.8035 1.69549 23.731 1.23603 22.5988 1.17075C22.4099 0.780633 22.102 0.459227 21.7186 0.252001C21.3352 0.0447737 20.8957 -0.0377839 20.4623 0.0160062C20.029 0.0697962 19.6236 0.257211 19.3037 0.551739C18.9837 0.846267 18.7654 1.233 18.6794 1.65723C18.343 1.75632 18.0065 1.85542 17.6519 1.99055C16.1989 2.55741 14.8067 3.26662 13.496 4.10762C12.1827 3.25579 10.7876 2.53459 9.33114 1.95452C5.83007 0.639233 2.96556 0.801392 1.35598 2.43198C-0.153574 3.93645 -0.399103 6.43188 0.601202 9.51289C0.372893 9.80372 0.227751 10.15 0.180988 10.5155C0.134224 10.8811 0.18756 11.2523 0.335405 11.5904C0.483251 11.9284 0.720164 12.2209 1.02132 12.4371C1.32247 12.6532 1.67677 12.7852 2.0471 12.8191C2.3381 13.3686 2.65637 13.9182 3.01103 14.4587C2.16653 15.76 1.45666 17.1423 0.8922 18.5847C-0.444572 22.0441 -0.271792 24.8909 1.37417 26.4854C1.87494 26.9491 2.4646 27.3084 3.10818 27.5421C3.75176 27.7758 4.43615 27.879 5.12076 27.8458C6.57338 27.7988 8.00566 27.4937 9.34933 26.9449C10.8044 26.3763 12.1994 25.6672 13.5142 24.8278C14.8169 25.6864 16.203 26.4138 17.6519 26.9989C18.717 27.4141 19.8332 27.6868 20.9711 27.8097C21.1708 28.2305 21.5076 28.5725 21.9272 28.7807C22.3469 28.9889 22.825 29.0512 23.2847 28.9576C23.7445 28.864 24.1591 28.62 24.4619 28.2647C24.7646 27.9094 24.938 27.4636 24.9541 26.9989C25.1956 26.8511 25.4211 26.679 25.627 26.4854C27.273 24.8548 27.4458 22.0441 26.109 18.5847C24.5406 14.869 22.2193 11.5116 19.2887 8.72011ZM8.68549 25.2783C5.95738 26.3143 3.72943 26.2963 2.63819 25.2062C1.54695 24.1161 1.51966 21.945 2.57453 19.2244C3.00195 18.1374 3.52218 17.0886 4.12955 16.0893C5.21257 17.5449 6.40415 18.9181 7.69428 20.1973C8.08531 20.5847 8.48543 20.9631 8.88555 21.3234C9.43117 21.0471 9.98589 20.7318 10.5497 20.3775C10.0223 19.909 9.49483 19.4766 8.98558 18.9271C6.93887 16.9347 5.18208 14.6698 3.7658 12.1975C4.05022 11.9055 4.24139 11.5368 4.31537 11.1377C4.38936 10.7386 4.34288 10.3267 4.18175 9.9536C4.02063 9.58051 3.75201 9.26278 3.40952 9.04017C3.06703 8.81757 2.66587 8.69997 2.25625 8.7021C1.57423 6.4499 1.69244 4.65715 2.64728 3.71123C2.98358 3.41762 3.37542 3.19315 3.80005 3.05087C4.22467 2.90859 4.67361 2.85133 5.12076 2.88242C6.34787 2.92302 7.55794 3.17925 8.69458 3.63916C9.79189 4.06584 10.8506 4.58421 11.8592 5.18867C10.3844 6.25836 8.99506 7.439 7.70337 8.72011C7.30325 9.1165 6.91222 9.5309 6.53029 9.94531C6.80409 10.5161 7.10763 11.0724 7.43965 11.6119C7.93071 11.0624 8.43087 10.5219 8.96739 9.99035C10.3665 8.60584 11.8882 7.34858 13.5142 6.23369C15.1229 7.3528 16.6292 8.60986 18.0156 9.99035C19.4134 11.3761 20.6826 12.8837 21.8077 14.4947C20.6797 16.1037 19.4108 17.611 18.0156 18.9991C15.3695 21.6996 12.1946 23.8363 8.68549 25.2783ZM24.3448 25.1972L24.1993 25.3143C23.9605 25.1138 23.6788 24.9696 23.3755 24.8929C23.0722 24.8161 22.7552 24.8087 22.4486 24.8712C22.1419 24.9337 21.8537 25.0644 21.6056 25.2536C21.3575 25.4427 21.156 25.6853 21.0165 25.9629C20.0818 25.844 19.1654 25.611 18.2884 25.2692C17.1895 24.8461 16.1305 24.3276 15.1238 23.7197C16.5986 22.65 17.9879 21.4694 19.2796 20.1883C20.5748 18.9137 21.7667 17.5402 22.8444 16.0803C23.4544 17.0795 23.9777 18.1283 24.4085 19.2153C25.4452 21.945 25.4452 24.1251 24.3448 25.1972Z" fill="white"/>
</svg>
